%TF.GenerationSoftware,Altium Limited,Altium Designer,19.1.8 (144)*%
G04 Layer_Color=16711935*
%FSLAX25Y25*%
%MOIN*%
%TF.FileFunction,Soldermask,Bot*%
%TF.Part,Single*%
G01*
G75*
%TA.AperFunction,ComponentPad*%
%ADD34R,0.09646X0.09646*%
%ADD35C,0.09646*%
%ADD46C,0.07887*%
%ADD47R,0.07099X0.07099*%
%ADD48C,0.07099*%
%ADD49C,0.06902*%
%ADD50R,0.06902X0.06902*%
%ADD51R,0.06706X0.06706*%
%ADD52C,0.06706*%
%ADD53R,0.06706X0.06706*%
%TA.AperFunction,ViaPad*%
%ADD54C,0.05800*%
%ADD55C,0.07887*%
%ADD56C,0.02520*%
D34*
X190748Y255847D02*
D03*
D35*
Y202815D02*
D03*
X177362Y255847D02*
D03*
Y202815D02*
D03*
D46*
X403306Y314266D02*
D03*
X396347Y307307D02*
D03*
Y321226D02*
D03*
X410266Y307307D02*
D03*
X410266Y321226D02*
D03*
X200058Y321451D02*
D03*
Y307532D02*
D03*
X186139Y321451D02*
D03*
Y307532D02*
D03*
X193099Y314492D02*
D03*
D47*
X17717Y205709D02*
D03*
X440945Y114173D02*
D03*
X17717Y249016D02*
D03*
X440945Y175197D02*
D03*
X17717Y162402D02*
D03*
Y119095D02*
D03*
Y75787D02*
D03*
Y31496D02*
D03*
X440314Y49207D02*
D03*
D48*
X17717Y186024D02*
D03*
X440945Y133858D02*
D03*
X17717Y229331D02*
D03*
X440945Y155512D02*
D03*
X17717Y142717D02*
D03*
Y99410D02*
D03*
Y56102D02*
D03*
Y11811D02*
D03*
X440314Y68893D02*
D03*
D49*
X356476Y235330D02*
D03*
X346476D02*
D03*
X336476D02*
D03*
X326476D02*
D03*
X356476Y245329D02*
D03*
X346476D02*
D03*
X336476D02*
D03*
D50*
X326476D02*
D03*
D51*
X274035Y25979D02*
D03*
X321373Y332455D02*
D03*
X114290Y328735D02*
D03*
D52*
X264035Y25979D02*
D03*
X280275Y51274D02*
D03*
X311373Y332455D02*
D03*
X104290Y328735D02*
D03*
D53*
X280275Y41274D02*
D03*
D54*
X248425Y245669D02*
D03*
X255906Y178150D02*
D03*
X243110Y174213D02*
D03*
X140748Y170276D02*
D03*
X308071Y290354D02*
D03*
X241142Y287402D02*
D03*
X214567Y220473D02*
D03*
X111221Y166339D02*
D03*
Y134843D02*
D03*
X118110Y186024D02*
D03*
X130413Y134843D02*
D03*
X264764Y80709D02*
D03*
X255906D02*
D03*
X316929Y62992D02*
D03*
X305118Y67913D02*
D03*
X301181Y90551D02*
D03*
X317913Y85630D02*
D03*
X312008Y90551D02*
D03*
X96457Y198819D02*
D03*
X46260Y205709D02*
D03*
Y248465D02*
D03*
X440945Y197835D02*
D03*
X365158Y180118D02*
D03*
X347441Y173228D02*
D03*
X310039Y137795D02*
D03*
X424213Y187992D02*
D03*
X365708Y189562D02*
D03*
X356288Y199966D02*
D03*
X345334Y211904D02*
D03*
X397795Y179030D02*
D03*
X97795Y183066D02*
D03*
X268858Y168696D02*
D03*
X264625Y296747D02*
D03*
X95826Y295861D02*
D03*
X107342Y77160D02*
D03*
X302617Y148125D02*
D03*
X398483Y163873D02*
D03*
X387755Y146648D02*
D03*
X374960Y81885D02*
D03*
X375255Y28341D02*
D03*
X320432Y112495D02*
D03*
X315117Y118007D02*
D03*
X309704Y127160D02*
D03*
X301239Y117318D02*
D03*
X364428Y127849D02*
D03*
X364822Y120271D02*
D03*
X49566Y316530D02*
D03*
X54979Y287495D02*
D03*
X388149Y103440D02*
D03*
X393858Y109050D02*
D03*
X299271Y191727D02*
D03*
X126042Y88479D02*
D03*
X288149Y124109D02*
D03*
X286476Y116826D02*
D03*
X340216Y178538D02*
D03*
X291692Y149404D02*
D03*
X262603Y152313D02*
D03*
X349665Y100881D02*
D03*
X349861Y164857D02*
D03*
X242381Y97436D02*
D03*
X270531Y88676D02*
D03*
X367972Y93007D02*
D03*
X361180Y170566D02*
D03*
X326535Y191826D02*
D03*
X285787Y175093D02*
D03*
X208129Y132869D02*
D03*
X252125Y132672D02*
D03*
X266594Y129522D02*
D03*
X262066Y135625D02*
D03*
X124074Y304719D02*
D03*
X45924Y176077D02*
D03*
X46515Y125881D02*
D03*
X46417Y96550D02*
D03*
X46515Y47436D02*
D03*
X97598Y111609D02*
D03*
X97795Y261904D02*
D03*
X98385Y40546D02*
D03*
X233326Y224109D02*
D03*
X269350Y220566D02*
D03*
X403922Y146791D02*
D03*
X386322Y193291D02*
D03*
D55*
X410266Y321226D02*
D03*
X410266Y307307D02*
D03*
X396347Y321226D02*
D03*
Y307307D02*
D03*
X403306Y314266D02*
D03*
X193099Y314492D02*
D03*
X186139Y307532D02*
D03*
Y321451D02*
D03*
X200058Y307532D02*
D03*
Y321451D02*
D03*
D56*
X251401Y241617D02*
D03*
Y238467D02*
D03*
%TF.MD5,bfd68946fca992d08b112f8595787ace*%
M02*
