%TF.GenerationSoftware,Altium Limited,Altium Designer,19.1.8 (144)*%
G04 Layer_Physical_Order=2*
G04 Layer_Color=16711680*
%FSLAX25Y25*%
%MOIN*%
%TF.FileFunction,Copper,L2,Bot,Signal*%
%TF.Part,Single*%
G01*
G75*
%TA.AperFunction,Conductor*%
%ADD30C,0.01000*%
%ADD31C,0.01968*%
%ADD32C,0.03937*%
%TA.AperFunction,ComponentPad*%
%ADD33C,0.07087*%
%ADD34R,0.09646X0.09646*%
%ADD35C,0.09646*%
%ADD36R,0.06299X0.06299*%
%ADD37C,0.06299*%
%ADD38C,0.06102*%
%ADD39R,0.06102X0.06102*%
%ADD40R,0.05906X0.05906*%
%ADD41C,0.05906*%
%ADD42R,0.05906X0.05906*%
%TA.AperFunction,ViaPad*%
%ADD43C,0.05000*%
%ADD44C,0.07087*%
%ADD45C,0.01968*%
G36*
X301046Y292032D02*
X302866Y291278D01*
X304504Y290184D01*
X304819Y289869D01*
X304868Y289496D01*
X305199Y288696D01*
X305726Y288010D01*
X306413Y287483D01*
X306908Y287278D01*
X306991Y287153D01*
X307745Y285333D01*
X308129Y283401D01*
X308129Y282416D01*
X308129D01*
X308129Y282416D01*
X308129Y214030D01*
X308421Y213164D01*
X308775Y211370D01*
X308891Y209545D01*
X308768Y207720D01*
X308408Y205927D01*
X307817Y204197D01*
X307004Y202558D01*
X305986Y201040D01*
X304777Y199667D01*
X303400Y198464D01*
X301877Y197451D01*
X300236Y196645D01*
X299369Y196353D01*
X299369Y196353D01*
X299369Y196353D01*
X299369Y196353D01*
X139342Y196353D01*
X139048Y196231D01*
X138424Y196107D01*
X137787Y196107D01*
X137163Y196231D01*
X136869Y196353D01*
Y196353D01*
X113641Y196353D01*
Y274311D01*
X113641Y275348D01*
X113872Y277410D01*
X114330Y279434D01*
X115010Y281394D01*
X115904Y283266D01*
X117000Y285028D01*
X118285Y286657D01*
X119744Y288133D01*
X121357Y289437D01*
X123105Y290555D01*
X124967Y291471D01*
X126918Y292175D01*
X127927Y292416D01*
X127927Y292416D01*
X298129Y292416D01*
X299114Y292416D01*
X301046Y292032D01*
D02*
G37*
%LPC*%
G36*
X241642Y290866D02*
Y287902D01*
X244606D01*
X244552Y288315D01*
X244199Y289167D01*
X243638Y289898D01*
X242907Y290459D01*
X242055Y290811D01*
X241642Y290866D01*
D02*
G37*
G36*
X240642D02*
X240228Y290811D01*
X239377Y290459D01*
X238646Y289898D01*
X238085Y289167D01*
X237732Y288315D01*
X237677Y287902D01*
X240642D01*
Y290866D01*
D02*
G37*
G36*
X244606Y286902D02*
X241642D01*
Y283937D01*
X242055Y283992D01*
X242907Y284344D01*
X243638Y284905D01*
X244199Y285636D01*
X244552Y286488D01*
X244606Y286902D01*
D02*
G37*
G36*
X240642D02*
X237677D01*
X237732Y286488D01*
X238085Y285636D01*
X238646Y284905D01*
X239377Y284344D01*
X240228Y283992D01*
X240642Y283937D01*
Y286902D01*
D02*
G37*
G36*
X196358Y261457D02*
X185138D01*
Y250236D01*
X196358D01*
Y261457D01*
D02*
G37*
G36*
X177362Y261505D02*
X175898Y261312D01*
X174533Y260747D01*
X173361Y259848D01*
X172462Y258676D01*
X171896Y257311D01*
X171704Y255847D01*
X171896Y254382D01*
X172462Y253017D01*
X173361Y251845D01*
X174533Y250946D01*
X175898Y250381D01*
X177362Y250188D01*
X178827Y250381D01*
X180192Y250946D01*
X181363Y251845D01*
X182263Y253017D01*
X182828Y254382D01*
X183021Y255847D01*
X182828Y257311D01*
X182263Y258676D01*
X181363Y259848D01*
X180192Y260747D01*
X178827Y261312D01*
X177362Y261505D01*
D02*
G37*
G36*
X248925Y249134D02*
Y246169D01*
X251890D01*
X251835Y246583D01*
X251482Y247434D01*
X250921Y248165D01*
X250190Y248727D01*
X249339Y249079D01*
X248925Y249134D01*
D02*
G37*
G36*
X247925D02*
X247512Y249079D01*
X246660Y248727D01*
X245929Y248165D01*
X245368Y247434D01*
X245015Y246583D01*
X244961Y246169D01*
X247925D01*
Y249134D01*
D02*
G37*
G36*
Y245169D02*
X244961D01*
X245015Y244756D01*
X245368Y243904D01*
X245929Y243173D01*
X246660Y242612D01*
X247512Y242259D01*
X247925Y242205D01*
Y245169D01*
D02*
G37*
G36*
X251890D02*
X248925D01*
Y242205D01*
X248987Y242213D01*
X249077Y242117D01*
X253325D01*
X253270Y242391D01*
X252831Y243047D01*
X252175Y243486D01*
X251843Y243552D01*
X251768Y243625D01*
X251570Y244116D01*
X251835Y244756D01*
X251890Y245169D01*
D02*
G37*
G36*
X253325Y241117D02*
X249477D01*
X249532Y240843D01*
X249826Y240403D01*
X249929Y240042D01*
X249826Y239682D01*
X249532Y239242D01*
X249477Y238967D01*
X253325D01*
X253270Y239242D01*
X252976Y239682D01*
X252873Y240042D01*
X252976Y240403D01*
X253270Y240843D01*
X253325Y241117D01*
D02*
G37*
G36*
Y237967D02*
X251901D01*
Y236544D01*
X252175Y236598D01*
X252831Y237037D01*
X253270Y237693D01*
X253325Y237967D01*
D02*
G37*
G36*
X250901D02*
X249477D01*
X249532Y237693D01*
X249970Y237037D01*
X250627Y236598D01*
X250901Y236544D01*
Y237967D01*
D02*
G37*
G36*
X233826Y227573D02*
Y224609D01*
X236790D01*
X236736Y225023D01*
X236383Y225874D01*
X235822Y226605D01*
X235091Y227166D01*
X234240Y227519D01*
X233826Y227573D01*
D02*
G37*
G36*
X232826D02*
X232412Y227519D01*
X231561Y227166D01*
X230830Y226605D01*
X230269Y225874D01*
X229916Y225023D01*
X229862Y224609D01*
X232826D01*
Y227573D01*
D02*
G37*
G36*
X269850Y224030D02*
Y221066D01*
X272814D01*
X272760Y221479D01*
X272407Y222331D01*
X271846Y223062D01*
X271115Y223623D01*
X270263Y223976D01*
X269850Y224030D01*
D02*
G37*
G36*
X268850D02*
X268436Y223976D01*
X267584Y223623D01*
X266853Y223062D01*
X266292Y222331D01*
X265940Y221479D01*
X265885Y221066D01*
X268850D01*
Y224030D01*
D02*
G37*
G36*
X215067Y223937D02*
Y220972D01*
X218031D01*
X217977Y221386D01*
X217624Y222238D01*
X217063Y222969D01*
X216332Y223530D01*
X215480Y223882D01*
X215067Y223937D01*
D02*
G37*
G36*
X214067D02*
X213653Y223882D01*
X212802Y223530D01*
X212071Y222969D01*
X211510Y222238D01*
X211157Y221386D01*
X211103Y220972D01*
X214067D01*
Y223937D01*
D02*
G37*
G36*
X236790Y223609D02*
X233826D01*
Y220645D01*
X234240Y220699D01*
X235091Y221052D01*
X235822Y221613D01*
X236383Y222344D01*
X236736Y223195D01*
X236790Y223609D01*
D02*
G37*
G36*
X232826D02*
X229862D01*
X229916Y223195D01*
X230269Y222344D01*
X230830Y221613D01*
X231561Y221052D01*
X232412Y220699D01*
X232826Y220645D01*
Y223609D01*
D02*
G37*
G36*
X272814Y220066D02*
X269850D01*
Y217101D01*
X270263Y217156D01*
X271115Y217509D01*
X271846Y218070D01*
X272407Y218801D01*
X272760Y219652D01*
X272814Y220066D01*
D02*
G37*
G36*
X268850D02*
X265885D01*
X265940Y219652D01*
X266292Y218801D01*
X266853Y218070D01*
X267584Y217509D01*
X268436Y217156D01*
X268850Y217101D01*
Y220066D01*
D02*
G37*
G36*
X218031Y219972D02*
X215067D01*
Y217008D01*
X215480Y217063D01*
X216332Y217415D01*
X217063Y217976D01*
X217624Y218707D01*
X217977Y219559D01*
X218031Y219972D01*
D02*
G37*
G36*
X214067D02*
X211103D01*
X211157Y219559D01*
X211510Y218707D01*
X212071Y217976D01*
X212802Y217415D01*
X213653Y217063D01*
X214067Y217008D01*
Y219972D01*
D02*
G37*
G36*
X190748Y208474D02*
X189284Y208281D01*
X187919Y207716D01*
X186747Y206816D01*
X185847Y205644D01*
X185282Y204279D01*
X185089Y202815D01*
X185282Y201350D01*
X185847Y199986D01*
X186747Y198814D01*
X187919Y197914D01*
X189284Y197349D01*
X190748Y197156D01*
X192213Y197349D01*
X193577Y197914D01*
X194749Y198814D01*
X195649Y199986D01*
X196214Y201350D01*
X196407Y202815D01*
X196214Y204279D01*
X195649Y205644D01*
X194749Y206816D01*
X193577Y207716D01*
X192213Y208281D01*
X190748Y208474D01*
D02*
G37*
G36*
X177362D02*
X175898Y208281D01*
X174533Y207716D01*
X173361Y206816D01*
X172462Y205644D01*
X171896Y204279D01*
X171704Y202815D01*
X171896Y201350D01*
X172462Y199986D01*
X173361Y198814D01*
X174533Y197914D01*
X175898Y197349D01*
X177362Y197156D01*
X178827Y197349D01*
X180192Y197914D01*
X181363Y198814D01*
X182263Y199986D01*
X182828Y201350D01*
X183021Y202815D01*
X182828Y204279D01*
X182263Y205644D01*
X181363Y206816D01*
X180192Y207716D01*
X178827Y208281D01*
X177362Y208474D01*
D02*
G37*
%LPD*%
D30*
X255906Y178150D02*
X261811D01*
X268858Y168696D02*
Y171103D01*
X261811Y178150D02*
X268858Y171103D01*
X227032Y170276D02*
X259566D01*
X269709Y160133D01*
X145339Y170276D02*
X227032Y170276D01*
X140748Y170276D02*
X145339D01*
X301678Y296747D02*
X308071Y290354D01*
X264625Y296747D02*
X301678D01*
X111221Y166339D02*
Y166776D01*
X110674Y167323D02*
X111221Y166776D01*
Y134843D02*
Y166339D01*
X118110Y148130D02*
X130905Y135335D01*
X118110Y148130D02*
Y186024D01*
X130413Y134843D02*
X130905Y135335D01*
X255906Y65644D02*
X280275Y41274D01*
X255906Y65644D02*
Y80709D01*
X264764Y66785D02*
X280275Y51274D01*
X264764Y66785D02*
Y80709D01*
X316929Y63976D02*
Y69882D01*
X312008Y74803D02*
X316929Y69882D01*
X312008Y74803D02*
Y90551D01*
X301181Y71850D02*
X304134Y68898D01*
X301181Y71850D02*
Y90551D01*
X315251Y112495D02*
X320432D01*
X296260Y93504D02*
X315251Y112495D01*
X296260Y68898D02*
Y93504D01*
X329591Y54134D02*
X357342Y81885D01*
X311024Y54134D02*
X329591D01*
X296260Y68898D02*
X311024Y54134D01*
X318115Y28341D02*
X375255D01*
X291339Y55118D02*
X318115Y28341D01*
X291339Y55118D02*
Y94228D01*
X315117Y118007D01*
X435039Y204724D02*
X440945Y198819D01*
Y197835D02*
Y198819D01*
X411417Y204724D02*
X435039D01*
X386811Y180118D02*
X411417Y204724D01*
X365158Y180118D02*
X386811D01*
X343504Y171260D02*
X343504D01*
X344707Y172463D01*
X346676D01*
X347441Y173228D01*
X310039Y137795D02*
X343504Y171260D01*
X291298Y129522D02*
X339724Y177948D01*
X266594Y129522D02*
X291298D01*
X309704Y127160D02*
X363543D01*
X301731Y116530D02*
X307440Y122239D01*
X361476D02*
X363838Y119877D01*
X307440Y122239D02*
X361476D01*
X440945Y155512D02*
X452756Y167323D01*
Y182087D01*
X446850Y187992D02*
X452756Y182087D01*
X424213Y187992D02*
X446850D01*
X379684Y6786D02*
X393858Y20959D01*
X56161Y6786D02*
X379684D01*
X25747Y37200D02*
X56161Y6786D01*
X356288Y199966D02*
X365708Y190546D01*
Y189562D02*
Y190546D01*
X335491Y211904D02*
X345334D01*
X317578Y229818D02*
X335491Y211904D01*
X317578Y229818D02*
Y243696D01*
X319212Y245329D01*
X326476D01*
X95826Y320270D02*
X104291Y328735D01*
X95826Y295861D02*
Y320270D01*
X269709Y160133D02*
X280964D01*
X398483Y157377D02*
Y163873D01*
X387755Y146648D02*
X398483Y157377D01*
X357342Y81885D02*
X374960D01*
X40314Y316924D02*
X48385D01*
X25747Y302357D02*
X40314Y316924D01*
X25747Y302357D02*
X25747Y37200D01*
X36574Y268400D02*
X54192Y286018D01*
X36574Y37889D02*
Y268400D01*
Y37889D02*
X62263Y12200D01*
X374271D01*
X393858Y20959D02*
Y109050D01*
X374271Y12200D02*
X388149Y26078D01*
Y103440D01*
X126928Y88873D02*
X164133D01*
X191889Y116629D01*
X267184D01*
X274665Y124109D01*
X288149D01*
X108424Y77160D02*
X174665D01*
X202913Y105408D01*
X275058D01*
X286476Y116826D01*
X280964Y160133D02*
X291692Y149404D01*
X208129Y132869D02*
X208326Y132672D01*
X252125D01*
X255275Y129522D01*
X266594D01*
X262066Y135625D02*
Y151471D01*
X125058Y305408D02*
Y317967D01*
X114290Y328735D02*
X125058Y317967D01*
X97795Y261904D02*
X98385Y261314D01*
X311373Y332455D02*
X329562Y314266D01*
X403306D01*
D31*
X242873Y174450D02*
Y205310D01*
Y174450D02*
X243110Y174213D01*
X46023Y204916D02*
X46059Y176078D01*
X46122Y125880D02*
X46159Y96550D01*
X46059Y176078D02*
X46122Y125880D01*
X46159Y96550D02*
X46220Y48617D01*
X326436Y191727D02*
X326436Y191727D01*
X349665Y99995D02*
X364920D01*
X318567Y85630D02*
X333818Y100881D01*
X317913Y85630D02*
X318567D01*
X46260Y205709D02*
Y248465D01*
Y205153D02*
Y205709D01*
X46023Y204916D02*
X46260Y205153D01*
X406688Y170467D02*
X424213Y187992D01*
X381554Y170467D02*
X406688D01*
X370728Y162200D02*
X377814Y155113D01*
Y112889D02*
Y155113D01*
X364920Y99995D02*
X377814Y112889D01*
X242381Y47633D02*
Y97436D01*
Y47633D02*
X264035Y25979D01*
X274035D01*
X285787Y175093D02*
X302617Y158263D01*
Y148125D02*
Y158263D01*
X299271Y191727D02*
X326436D01*
X326436Y191727D02*
X326535Y191826D01*
X333818Y100881D02*
X349665D01*
X352519Y162200D02*
X370728D01*
X349861Y164857D02*
X352519Y162200D01*
X251141Y88676D02*
X270531D01*
X242381Y97436D02*
X251141Y88676D01*
X361377Y170467D02*
X381554D01*
X367972Y93007D02*
X381554Y106589D01*
Y170467D01*
X292775Y182081D02*
Y205802D01*
X285787Y175093D02*
X292775Y182081D01*
D32*
X356554Y209542D02*
Y235330D01*
X339428Y192416D02*
X361377Y170467D01*
X98385Y40546D02*
Y261314D01*
X339428Y192416D02*
X356554Y209542D01*
X302224Y207574D02*
X324271D01*
X339428Y192416D01*
X97795Y261904D02*
X161377D01*
X174271Y309583D02*
X186139Y321451D01*
X174271Y287889D02*
Y309583D01*
D33*
X403306Y314266D02*
D03*
X396347Y307307D02*
D03*
Y321226D02*
D03*
X410266Y307307D02*
D03*
X410266Y321226D02*
D03*
X200058Y321451D02*
D03*
Y307532D02*
D03*
X186139Y321451D02*
D03*
Y307532D02*
D03*
X193099Y314492D02*
D03*
D34*
X190748Y255847D02*
D03*
D35*
Y202815D02*
D03*
X177362Y255847D02*
D03*
Y202815D02*
D03*
D36*
X17717Y205709D02*
D03*
X440945Y114173D02*
D03*
X17717Y249016D02*
D03*
X440945Y175197D02*
D03*
X17717Y162402D02*
D03*
Y119095D02*
D03*
Y75787D02*
D03*
Y31496D02*
D03*
X440314Y49207D02*
D03*
D37*
X17717Y186024D02*
D03*
X440945Y133858D02*
D03*
X17717Y229331D02*
D03*
X440945Y155512D02*
D03*
X17717Y142717D02*
D03*
Y99410D02*
D03*
Y56102D02*
D03*
Y11811D02*
D03*
X440314Y68893D02*
D03*
D38*
X356476Y235330D02*
D03*
X346476D02*
D03*
X336476D02*
D03*
X326476D02*
D03*
X356476Y245329D02*
D03*
X346476D02*
D03*
X336476D02*
D03*
D39*
X326476D02*
D03*
D40*
X274035Y25979D02*
D03*
X321373Y332455D02*
D03*
X114290Y328735D02*
D03*
D41*
X264035Y25979D02*
D03*
X280275Y51274D02*
D03*
X311373Y332455D02*
D03*
X104290Y328735D02*
D03*
D42*
X280275Y41274D02*
D03*
D43*
X248425Y245669D02*
D03*
X255906Y178150D02*
D03*
X243110Y174213D02*
D03*
X140748Y170276D02*
D03*
X308071Y290354D02*
D03*
X241142Y287402D02*
D03*
X214567Y220473D02*
D03*
X111221Y166339D02*
D03*
Y134843D02*
D03*
X118110Y186024D02*
D03*
X130413Y134843D02*
D03*
X264764Y80709D02*
D03*
X255906D02*
D03*
X316929Y62992D02*
D03*
X305118Y67913D02*
D03*
X301181Y90551D02*
D03*
X317913Y85630D02*
D03*
X312008Y90551D02*
D03*
X96457Y198819D02*
D03*
X46260Y205709D02*
D03*
Y248465D02*
D03*
X440945Y197835D02*
D03*
X365158Y180118D02*
D03*
X347441Y173228D02*
D03*
X310039Y137795D02*
D03*
X424213Y187992D02*
D03*
X365708Y189562D02*
D03*
X356288Y199966D02*
D03*
X345334Y211904D02*
D03*
X397795Y179030D02*
D03*
X97795Y183066D02*
D03*
X268858Y168696D02*
D03*
X264625Y296747D02*
D03*
X95826Y295861D02*
D03*
X107342Y77160D02*
D03*
X302617Y148125D02*
D03*
X398483Y163873D02*
D03*
X387755Y146648D02*
D03*
X374960Y81885D02*
D03*
X375255Y28341D02*
D03*
X320432Y112495D02*
D03*
X315117Y118007D02*
D03*
X309704Y127160D02*
D03*
X301239Y117318D02*
D03*
X364428Y127849D02*
D03*
X364822Y120271D02*
D03*
X49566Y316530D02*
D03*
X54979Y287495D02*
D03*
X388149Y103440D02*
D03*
X393858Y109050D02*
D03*
X299271Y191727D02*
D03*
X126042Y88479D02*
D03*
X288149Y124109D02*
D03*
X286476Y116826D02*
D03*
X340216Y178538D02*
D03*
X291692Y149404D02*
D03*
X262603Y152313D02*
D03*
X349665Y100881D02*
D03*
X349861Y164857D02*
D03*
X242381Y97436D02*
D03*
X270531Y88676D02*
D03*
X367972Y93007D02*
D03*
X361180Y170566D02*
D03*
X326535Y191826D02*
D03*
X285787Y175093D02*
D03*
X208129Y132869D02*
D03*
X252125Y132672D02*
D03*
X266594Y129522D02*
D03*
X262066Y135625D02*
D03*
X124074Y304719D02*
D03*
X45924Y176077D02*
D03*
X46515Y125881D02*
D03*
X46417Y96550D02*
D03*
X46515Y47436D02*
D03*
X97598Y111609D02*
D03*
X97795Y261904D02*
D03*
X98385Y40546D02*
D03*
X233326Y224109D02*
D03*
X269350Y220566D02*
D03*
X403922Y146791D02*
D03*
X386322Y193291D02*
D03*
D44*
X410266Y321226D02*
D03*
X410266Y307307D02*
D03*
X396347Y321226D02*
D03*
Y307307D02*
D03*
X403306Y314266D02*
D03*
X193099Y314492D02*
D03*
X186139Y307532D02*
D03*
Y321451D02*
D03*
X200058Y307532D02*
D03*
Y321451D02*
D03*
D45*
X251401Y241617D02*
D03*
Y238467D02*
D03*
%TF.MD5,272d6c66531be6e22eabfb0b612566ff*%
M02*
