%TF.GenerationSoftware,Altium Limited,Altium Designer,19.1.8 (144)*%
G04 Layer_Color=8388736*
%FSLAX25Y25*%
%MOIN*%
%TF.FileFunction,Soldermask,Top*%
%TF.Part,Single*%
G01*
G75*
%TA.AperFunction,SMDPad,CuDef*%
%ADD10R,0.04166X0.04749*%
%ADD15R,0.04749X0.04166*%
%ADD17R,0.06127X0.05924*%
%ADD22R,0.06693X0.09843*%
%TA.AperFunction,ComponentPad*%
%ADD34R,0.09646X0.09646*%
%ADD35C,0.09646*%
%ADD46C,0.07887*%
%ADD47R,0.07099X0.07099*%
%ADD48C,0.07099*%
%ADD49C,0.06902*%
%ADD50R,0.06902X0.06902*%
%ADD51R,0.06706X0.06706*%
%ADD52C,0.06706*%
%ADD53R,0.06706X0.06706*%
%TA.AperFunction,ViaPad*%
%ADD54C,0.05800*%
%ADD55C,0.07887*%
%ADD56C,0.02520*%
%TA.AperFunction,SMDPad,CuDef*%
%ADD64O,0.06902X0.03162*%
%ADD65R,0.04343X0.07099*%
%ADD66O,0.01981X0.09068*%
%ADD67O,0.09068X0.01981*%
%ADD68R,0.05524X0.05524*%
%ADD69R,0.11036X0.04540*%
%ADD70R,0.04737X0.11430*%
%ADD71R,0.04095X0.06850*%
%ADD72R,0.02520X0.01654*%
%ADD73R,0.06115X0.08083*%
%ADD74R,0.08280X0.06706*%
%ADD75R,0.03950X0.03950*%
%ADD76R,0.09068X0.06312*%
%ADD77R,0.06509X0.11824*%
G04:AMPARAMS|DCode=78|XSize=33.59mil|YSize=72.96mil|CornerRadius=5.92mil|HoleSize=0mil|Usage=FLASHONLY|Rotation=90.000|XOffset=0mil|YOffset=0mil|HoleType=Round|Shape=RoundedRectangle|*
%AMROUNDEDRECTD78*
21,1,0.03359,0.06112,0,0,90.0*
21,1,0.02175,0.07296,0,0,90.0*
1,1,0.01184,0.03056,0.01088*
1,1,0.01184,0.03056,-0.01088*
1,1,0.01184,-0.03056,-0.01088*
1,1,0.01184,-0.03056,0.01088*
%
%ADD78ROUNDEDRECTD78*%
%ADD79R,0.05131X0.07296*%
D10*
X82677Y263393D02*
D03*
Y256890D02*
D03*
X61024Y263393D02*
D03*
Y256890D02*
D03*
X83661Y199205D02*
D03*
Y205709D02*
D03*
X60039Y199504D02*
D03*
Y206008D02*
D03*
X41397Y308168D02*
D03*
Y301664D02*
D03*
X258228Y313581D02*
D03*
Y307078D02*
D03*
X84310Y176861D02*
D03*
Y183365D02*
D03*
X60393Y176763D02*
D03*
Y183266D02*
D03*
X82932Y46948D02*
D03*
Y40444D02*
D03*
X60984Y47637D02*
D03*
Y41133D02*
D03*
X83818Y97924D02*
D03*
Y104428D02*
D03*
X61082Y97235D02*
D03*
Y103739D02*
D03*
X83129Y126180D02*
D03*
Y119676D02*
D03*
X61180Y126180D02*
D03*
Y119676D02*
D03*
X262165Y138377D02*
D03*
Y144881D02*
D03*
X347893Y156684D02*
D03*
Y163188D02*
D03*
X260196Y123522D02*
D03*
Y117018D02*
D03*
X347401Y93396D02*
D03*
Y99900D02*
D03*
D15*
X262070Y155310D02*
D03*
X255566D02*
D03*
X243066Y134050D02*
D03*
X249570D02*
D03*
X283527Y173912D02*
D03*
X277023D02*
D03*
X248881Y108164D02*
D03*
X242377D02*
D03*
X287956Y88676D02*
D03*
X281452D02*
D03*
D17*
X361180Y148319D02*
D03*
Y155411D02*
D03*
X327814Y80208D02*
D03*
Y87301D02*
D03*
D22*
X214567Y220473D02*
D03*
Y236221D02*
D03*
D34*
X190748Y255847D02*
D03*
D35*
Y202815D02*
D03*
X177362Y255847D02*
D03*
Y202815D02*
D03*
D46*
X403306Y314266D02*
D03*
X396347Y307307D02*
D03*
Y321226D02*
D03*
X410266Y307307D02*
D03*
X410266Y321226D02*
D03*
X200058Y321451D02*
D03*
Y307532D02*
D03*
X186139Y321451D02*
D03*
Y307532D02*
D03*
X193099Y314492D02*
D03*
D47*
X17717Y205709D02*
D03*
X440945Y114173D02*
D03*
X17717Y249016D02*
D03*
X440945Y175197D02*
D03*
X17717Y162402D02*
D03*
Y119095D02*
D03*
Y75787D02*
D03*
Y31496D02*
D03*
X440314Y49207D02*
D03*
D48*
X17717Y186024D02*
D03*
X440945Y133858D02*
D03*
X17717Y229331D02*
D03*
X440945Y155512D02*
D03*
X17717Y142717D02*
D03*
Y99410D02*
D03*
Y56102D02*
D03*
Y11811D02*
D03*
X440314Y68893D02*
D03*
D49*
X356476Y235330D02*
D03*
X346476D02*
D03*
X336476D02*
D03*
X326476D02*
D03*
X356476Y245329D02*
D03*
X346476D02*
D03*
X336476D02*
D03*
D50*
X326476D02*
D03*
D51*
X274035Y25979D02*
D03*
X321373Y332455D02*
D03*
X114290Y328735D02*
D03*
D52*
X264035Y25979D02*
D03*
X280275Y51274D02*
D03*
X311373Y332455D02*
D03*
X104290Y328735D02*
D03*
D53*
X280275Y41274D02*
D03*
D54*
X248425Y245669D02*
D03*
X255906Y178150D02*
D03*
X243110Y174213D02*
D03*
X140748Y170276D02*
D03*
X308071Y290354D02*
D03*
X241142Y287402D02*
D03*
X214567Y220473D02*
D03*
X111221Y166339D02*
D03*
Y134843D02*
D03*
X118110Y186024D02*
D03*
X130413Y134843D02*
D03*
X264764Y80709D02*
D03*
X255906D02*
D03*
X316929Y62992D02*
D03*
X305118Y67913D02*
D03*
X301181Y90551D02*
D03*
X317913Y85630D02*
D03*
X312008Y90551D02*
D03*
X96457Y198819D02*
D03*
X46260Y205709D02*
D03*
Y248465D02*
D03*
X440945Y197835D02*
D03*
X365158Y180118D02*
D03*
X347441Y173228D02*
D03*
X310039Y137795D02*
D03*
X424213Y187992D02*
D03*
X365708Y189562D02*
D03*
X356288Y199966D02*
D03*
X345334Y211904D02*
D03*
X397795Y179030D02*
D03*
X97795Y183066D02*
D03*
X268858Y168696D02*
D03*
X264625Y296747D02*
D03*
X95826Y295861D02*
D03*
X107342Y77160D02*
D03*
X302617Y148125D02*
D03*
X398483Y163873D02*
D03*
X387755Y146648D02*
D03*
X374960Y81885D02*
D03*
X375255Y28341D02*
D03*
X320432Y112495D02*
D03*
X315117Y118007D02*
D03*
X309704Y127160D02*
D03*
X301239Y117318D02*
D03*
X364428Y127849D02*
D03*
X364822Y120271D02*
D03*
X49566Y316530D02*
D03*
X54979Y287495D02*
D03*
X388149Y103440D02*
D03*
X393858Y109050D02*
D03*
X299271Y191727D02*
D03*
X126042Y88479D02*
D03*
X288149Y124109D02*
D03*
X286476Y116826D02*
D03*
X340216Y178538D02*
D03*
X291692Y149404D02*
D03*
X262603Y152313D02*
D03*
X349665Y100881D02*
D03*
X349861Y164857D02*
D03*
X242381Y97436D02*
D03*
X270531Y88676D02*
D03*
X367972Y93007D02*
D03*
X361180Y170566D02*
D03*
X326535Y191826D02*
D03*
X285787Y175093D02*
D03*
X208129Y132869D02*
D03*
X252125Y132672D02*
D03*
X266594Y129522D02*
D03*
X262066Y135625D02*
D03*
X124074Y304719D02*
D03*
X45924Y176077D02*
D03*
X46515Y125881D02*
D03*
X46417Y96550D02*
D03*
X46515Y47436D02*
D03*
X97598Y111609D02*
D03*
X97795Y261904D02*
D03*
X98385Y40546D02*
D03*
X233326Y224109D02*
D03*
X269350Y220566D02*
D03*
X403922Y146791D02*
D03*
X386322Y193291D02*
D03*
D55*
X410266Y321226D02*
D03*
X410266Y307307D02*
D03*
X396347Y321226D02*
D03*
Y307307D02*
D03*
X403306Y314266D02*
D03*
X193099Y314492D02*
D03*
X186139Y307532D02*
D03*
Y321451D02*
D03*
X200058Y307532D02*
D03*
Y321451D02*
D03*
D56*
X251401Y241617D02*
D03*
Y238467D02*
D03*
D64*
X61417Y248268D02*
D03*
Y243268D02*
D03*
Y238268D02*
D03*
Y233268D02*
D03*
Y228268D02*
D03*
Y223268D02*
D03*
Y218268D02*
D03*
X82284Y248268D02*
D03*
Y243268D02*
D03*
Y238268D02*
D03*
Y233268D02*
D03*
Y228268D02*
D03*
Y223268D02*
D03*
Y218268D02*
D03*
X82637Y57180D02*
D03*
Y62180D02*
D03*
Y67180D02*
D03*
Y72180D02*
D03*
Y77180D02*
D03*
Y82180D02*
D03*
Y87180D02*
D03*
X61771Y57180D02*
D03*
Y62180D02*
D03*
Y67180D02*
D03*
Y72180D02*
D03*
Y77180D02*
D03*
Y82180D02*
D03*
Y87180D02*
D03*
X82637Y135920D02*
D03*
Y140920D02*
D03*
Y145920D02*
D03*
Y150920D02*
D03*
Y155920D02*
D03*
Y160920D02*
D03*
Y165920D02*
D03*
X61771Y135920D02*
D03*
Y140920D02*
D03*
Y145920D02*
D03*
Y150920D02*
D03*
Y155920D02*
D03*
Y160920D02*
D03*
Y165920D02*
D03*
D65*
X409507Y241038D02*
D03*
X398877D02*
D03*
X409507Y217416D02*
D03*
X398877D02*
D03*
X409507Y193794D02*
D03*
X398877D02*
D03*
D66*
X282058Y161794D02*
D03*
X284027D02*
D03*
X285995D02*
D03*
X287964D02*
D03*
X289932D02*
D03*
X291901D02*
D03*
X293869D02*
D03*
X295838D02*
D03*
X297806D02*
D03*
X299775D02*
D03*
X301743D02*
D03*
X303712D02*
D03*
X305680D02*
D03*
X307649D02*
D03*
X309617D02*
D03*
X311586D02*
D03*
X313554D02*
D03*
X315523D02*
D03*
X317491D02*
D03*
X319460D02*
D03*
X321428D02*
D03*
X323397D02*
D03*
X325365D02*
D03*
X327334D02*
D03*
X329302D02*
D03*
Y101952D02*
D03*
X327334D02*
D03*
X325365D02*
D03*
X323397D02*
D03*
X321428D02*
D03*
X319460D02*
D03*
X317491D02*
D03*
X315523D02*
D03*
X313554D02*
D03*
X311586D02*
D03*
X309617D02*
D03*
X307649D02*
D03*
X305680D02*
D03*
X303712D02*
D03*
X301743D02*
D03*
X299775D02*
D03*
X297806D02*
D03*
X295838D02*
D03*
X293869D02*
D03*
X291901D02*
D03*
X289932D02*
D03*
X287964D02*
D03*
X285995D02*
D03*
X284027D02*
D03*
X282058D02*
D03*
D67*
X335602Y155495D02*
D03*
Y153526D02*
D03*
Y151558D02*
D03*
Y149589D02*
D03*
Y147621D02*
D03*
Y145652D02*
D03*
Y143684D02*
D03*
Y141715D02*
D03*
Y139747D02*
D03*
Y137778D02*
D03*
Y135810D02*
D03*
Y133841D02*
D03*
Y131873D02*
D03*
Y129904D02*
D03*
Y127936D02*
D03*
Y125967D02*
D03*
Y123999D02*
D03*
Y122030D02*
D03*
Y120062D02*
D03*
Y118093D02*
D03*
Y116125D02*
D03*
Y114156D02*
D03*
Y112188D02*
D03*
Y110219D02*
D03*
Y108251D02*
D03*
X275759D02*
D03*
Y110219D02*
D03*
Y112188D02*
D03*
Y114156D02*
D03*
Y116125D02*
D03*
Y118093D02*
D03*
Y120062D02*
D03*
Y122030D02*
D03*
Y123999D02*
D03*
Y125967D02*
D03*
Y127936D02*
D03*
Y129904D02*
D03*
Y131873D02*
D03*
Y133841D02*
D03*
Y135810D02*
D03*
Y137778D02*
D03*
Y139747D02*
D03*
Y141715D02*
D03*
Y143684D02*
D03*
Y145652D02*
D03*
Y147621D02*
D03*
Y149589D02*
D03*
Y151558D02*
D03*
Y153526D02*
D03*
Y155495D02*
D03*
D68*
X423680Y244975D02*
D03*
X431948D02*
D03*
X423680Y221353D02*
D03*
X431948D02*
D03*
D69*
X268818Y235034D02*
D03*
Y224010D02*
D03*
X233523Y237593D02*
D03*
Y226570D02*
D03*
D70*
X263444Y252751D02*
D03*
X272106D02*
D03*
D71*
X251401Y240042D02*
D03*
D72*
X255141Y242995D02*
D03*
Y241026D02*
D03*
Y239058D02*
D03*
Y237089D02*
D03*
X247661D02*
D03*
Y239058D02*
D03*
Y241026D02*
D03*
Y242995D02*
D03*
D73*
X416342Y67416D02*
D03*
X404334D02*
D03*
X416342Y43794D02*
D03*
X404334D02*
D03*
D74*
X378842Y81196D02*
D03*
Y69385D02*
D03*
Y41826D02*
D03*
Y30015D02*
D03*
D75*
X424468Y197830D02*
D03*
X430373D02*
D03*
D76*
X206259Y152357D02*
D03*
Y134641D02*
D03*
X170432D02*
D03*
Y152357D02*
D03*
D77*
X316299Y308262D02*
D03*
X328306D02*
D03*
X110098Y305113D02*
D03*
X122105D02*
D03*
D78*
X293125Y301333D02*
D03*
Y306333D02*
D03*
Y311333D02*
D03*
Y316334D02*
D03*
X270881Y301333D02*
D03*
Y306333D02*
D03*
Y311333D02*
D03*
Y316334D02*
D03*
X80668Y297239D02*
D03*
Y302239D02*
D03*
Y307239D02*
D03*
Y312239D02*
D03*
X58425Y297239D02*
D03*
Y302239D02*
D03*
Y307239D02*
D03*
Y312239D02*
D03*
D79*
X286672Y337692D02*
D03*
X275452D02*
D03*
X82342Y328735D02*
D03*
X71121D02*
D03*
%TF.MD5,40e5a6ee7aa095e2a2e72b174935a5c0*%
M02*
