%TF.GenerationSoftware,Altium Limited,Altium Designer,19.1.8 (144)*%
G04 Layer_Color=255*
%FSLAX25Y25*%
%MOIN*%
%TF.FileFunction,Pads,Bot*%
%TF.Part,Single*%
G01*
G75*
%TA.AperFunction,ComponentPad*%
%ADD33C,0.07087*%
%ADD34R,0.09646X0.09646*%
%ADD35C,0.09646*%
%ADD36R,0.06299X0.06299*%
%ADD37C,0.06299*%
%ADD38C,0.06102*%
%ADD39R,0.06102X0.06102*%
%ADD40R,0.05906X0.05906*%
%ADD41C,0.05906*%
%ADD42R,0.05906X0.05906*%
D33*
X403306Y314266D02*
D03*
X396347Y307307D02*
D03*
Y321226D02*
D03*
X410266Y307307D02*
D03*
X410266Y321226D02*
D03*
X200058Y321451D02*
D03*
Y307532D02*
D03*
X186139Y321451D02*
D03*
Y307532D02*
D03*
X193099Y314492D02*
D03*
D34*
X190748Y255847D02*
D03*
D35*
Y202815D02*
D03*
X177362Y255847D02*
D03*
Y202815D02*
D03*
D36*
X17717Y205709D02*
D03*
X440945Y114173D02*
D03*
X17717Y249016D02*
D03*
X440945Y175197D02*
D03*
X17717Y162402D02*
D03*
Y119095D02*
D03*
Y75787D02*
D03*
Y31496D02*
D03*
X440314Y49207D02*
D03*
D37*
X17717Y186024D02*
D03*
X440945Y133858D02*
D03*
X17717Y229331D02*
D03*
X440945Y155512D02*
D03*
X17717Y142717D02*
D03*
Y99410D02*
D03*
Y56102D02*
D03*
Y11811D02*
D03*
X440314Y68893D02*
D03*
D38*
X356476Y235330D02*
D03*
X346476D02*
D03*
X336476D02*
D03*
X326476D02*
D03*
X356476Y245329D02*
D03*
X346476D02*
D03*
X336476D02*
D03*
D39*
X326476D02*
D03*
D40*
X274035Y25979D02*
D03*
X321373Y332455D02*
D03*
X114290Y328735D02*
D03*
D41*
X264035Y25979D02*
D03*
X280275Y51274D02*
D03*
X311373Y332455D02*
D03*
X104290Y328735D02*
D03*
D42*
X280275Y41274D02*
D03*
%TF.MD5,fe4199deed46314ba021064fba5a6617*%
M02*
