M48
;Layer_Color=9474304
;FILE_FORMAT=2:5
INCH,TZ
;TYPE=PLATED
T1F00S00C0.00787
T2F00S00C0.02800
T3F00S00C0.03543
T4F00S00C0.04094
T5F00S00C0.04331
T6F00S00C0.04724
T7F00S00C0.06299
%
T01
X251401Y238467
Y241617
T02
X375255Y28341
X374960Y81885
X367972Y93007
X317913Y85630
X312008Y90551
X301181
X305118Y67913
X316929Y62992
X264764Y80709
X255906
X270531Y88676
X126042Y88479
X107342Y77160
X98385Y40546
X46515Y47436
X46417Y96550
X46515Y125881
X45924Y176077
X46260Y205709
Y248465
X96457Y198819
X97795Y183066
X118110Y186024
X111221Y166339
Y134843
X130413
X140748Y170276
X97598Y111609
X208129Y132869
X252125Y132672
X262066Y135625
X266594Y129522
X262603Y152313
X268858Y168696
X255906Y178150
X243110Y174213
X285787Y175093
X299271Y191727
X326535Y191826
X340216Y178538
X345334Y211904
X269350Y220566
X233326Y224109
X214567Y220473
X248425Y245669
X291692Y149404
X302617Y148125
X310039Y137795
X309704Y127160
X315117Y118007
X320432Y112495
X301239Y117318
X286476Y116826
X288149Y124109
X242381Y97436
X349665Y100881
X364822Y120271
X364428Y127849
X387755Y146648
X403922Y146791
X398483Y163873
X397795Y179030
X386322Y193291
X365708Y189562
X365158Y180118
X361180Y170566
X347441Y173228
X349861Y164857
X356288Y199966
X424213Y187992
X440945Y197835
X393858Y109050
X388149Y103440
X308071Y290354
X264625Y296747
X241142Y287402
X124074Y304719
X95826Y295861
X97795Y261904
X54979Y287495
X49566Y316530
T03
X264035Y25979
X274035
X280275Y41274
Y51274
X311373Y332455
X321373
X114290Y328735
X104290
T04
X326476Y235330
X336476
Y245329
X326476
X346476
Y235330
X356476
Y245329
T05
X440314Y49207
Y68893
X17717Y75787
Y56102
Y31496
Y11811
Y99410
Y119095
Y142717
Y162402
Y186024
Y205709
Y229331
Y249016
X440945Y175197
Y155512
X440945Y133858
Y114173
T06
X396347Y307307
X410266
X410266Y307307
X403306Y314266
X396347Y321226
X410266Y321226
X200058Y321451
X193099Y314492
X200058Y307532
X200058Y307532
X186139
Y321451
T07
X177362Y202815
X190748
Y255847
X177362
M30
